Coordinates
version=1
nRows=16
nColumns=22
inDegrees=yes

Units are S.I. units (second, meters, Newtons, ...)
If the header above contains a line with 'inDegrees', this indicates whether rotational values are in degrees (yes) or radians (no).

endheader
time	pelvis_tilt	pelvis_list	pelvis_rotation	pelvis_tx	pelvis_ty	pelvis_tz	hip_flexion_r	hip_adduction_r	hip_rotation_r	knee_angle_r	ankle_angle_r	subtalar_angle_r	hip_flexion_l	hip_adduction_l	hip_rotation_l	knee_angle_l	ankle_angle_l	subtalar_angle_l	lumbar_extension	lumbar_bending	lumbar_rotation
      0.01000000	     -1.01905745	     -3.49494549	     -1.30710392	      1.02593171	      0.92363669	      0.14297923	      3.78766700	      4.12612420	      1.18463550	     -9.60316635	      2.79725979	      3.03155641	      7.73385039	     -6.22145220	    -10.98089359	    -18.52599814	      8.17314167	     -3.01271475	     -5.51519913	     -1.78532972	      3.29965960
      0.02000000	     -0.98315888	     -3.39779647	     -1.35877116	      1.02630861	      0.92375579	      0.14258718	      3.77915411	      3.98905318	      1.11812723	     -9.70110683	      2.89320808	      3.11401169	      7.44530294	     -6.06968173	    -11.18141941	    -18.10989273	      8.01139599	     -2.94479367	     -5.50509252	     -1.84828892	      3.27284370
      0.03000000	     -0.94401799	     -3.26238599	     -1.43081929	      1.02671699	      0.92391205	      0.14217702	      3.79352110	      3.80923148	      1.07055710	     -9.85400533	      3.00261351	      3.19236495	      7.11509012	     -5.86777492	    -11.40663297	    -17.62947201	      7.81304741	     -2.82712751	     -5.49633894	     -1.94875438	      3.24443344
      0.04000000	     -0.87594941	     -3.11221500	     -1.51285825	      1.02719849	      0.92414941	      0.14177564	      3.76353317	      3.61342044	      1.04639444	     -9.98792846	      3.12501175	      3.29513686	      6.71652993	     -5.63955421	    -11.62698603	    -17.08776479	      7.59924652	     -2.69212363	     -5.51469904	     -2.06233065	      3.23894927
      0.05000000	     -0.78999192	     -2.95690368	     -1.59870814	      1.02773484	      0.92444031	      0.14140591	      3.70061949	      3.41358287	      1.04689791	    -10.10178162	      3.24180795	      3.40932800	      6.28376302	     -5.39915617	    -11.82307358	    -16.52355728	      7.37910165	     -2.56660035	     -5.54803062	     -2.18008443	      3.24150375
      0.06000000	     -0.66921707	     -2.82195577	     -1.67635878	      1.02837230	      0.92480038	      0.14108601	      3.55811074	      3.23835604	      1.05706931	    -10.14669778	      3.35001761	      3.54231744	      5.80661071	     -5.17776536	    -11.98977394	    -15.95607207	      7.17091043	     -2.44921289	     -5.60948280	     -2.27680813	      3.26180204
      0.07000000	     -0.57396780	     -2.69102319	     -1.74463538	      1.02900015	      0.92511728	      0.14081677	      3.44606960	      3.07323973	      1.09156999	    -10.19844391	      3.42925579	      3.63615536	      5.38062281	     -4.96306511	    -12.10058542	    -15.42928466	      6.98347087	     -2.37261157	     -5.64276052	     -2.36701795	      3.25730446
      0.08000000	     -0.50536994	     -2.56499993	     -1.79448253	      1.02964251	      0.92537757	      0.14057497	      3.34894531	      2.91861329	      1.15305999	    -10.23033512	      3.48884833	      3.68960363	      5.01300496	     -4.75693961	    -12.15189324	    -14.95354264	      6.81344079	     -2.32142132	     -5.64125538	     -2.44867873	      3.22071713
      0.09000000	     -0.40247651	     -2.46542307	     -1.81434587	      1.03036444	      0.92566094	      0.14034972	      3.17405999	      2.79358927	      1.19802706	    -10.19712993	      3.53992857	      3.72680561	      4.62924777	     -4.58528358	    -12.17168383	    -14.52059530	      6.67270022	     -2.27233724	     -5.66829031	     -2.50176681	      3.18167539
      0.10000000	     -0.30353223	     -2.38609347	     -1.80705171	      1.03109134	      0.92589819	      0.14010009	      2.98658278	      2.69017397	      1.23411069	    -10.13501703	      3.56799587	      3.72941180	      4.28965776	     -4.44248558	    -12.14985572	    -14.16043666	      6.56715582	     -2.22976066	     -5.69043031	     -2.52301166	      3.11891089
      0.11000000	     -0.20274938	     -2.31985812	     -1.77161362	      1.03179367	      0.92610256	      0.13981569	      2.78741721	      2.59987796	      1.25954965	    -10.05489683	      3.58228981	      3.70254493	      3.98673669	     -4.32094281	    -12.10354468	    -13.86354855	      6.48751930	     -2.18947383	     -5.71949246	     -2.52340423	      3.03600208
      0.12000000	     -0.08794244	     -2.26664957	     -1.72357070	      1.03249467	      0.92629514	      0.13949641	      2.55582683	      2.52094650	      1.26109978	     -9.94152448	      3.58461037	      3.65140132	      3.70162543	     -4.21836583	    -12.04546453	    -13.63012780	      6.43384075	     -2.14658812	     -5.76444014	     -2.50169096	      2.95150205
      0.13000000	      0.02546056	     -2.22373549	     -1.65766872	      1.03313605	      0.92645960	      0.13915048	      2.32164527	      2.45206372	      1.25470024	     -9.81503885	      3.56922794	      3.58762378	      3.45659949	     -4.13437225	    -11.98099883	    -13.45805274	      6.40154986	     -2.10485215	     -5.81752243	     -2.46536100	      2.85923232
      0.14000000	      0.14402555	     -2.19281824	     -1.58156044	      1.03372682	      0.92661339	      0.13878950	      2.07439968	      2.39447739	      1.23204490	     -9.66780823	      3.53554091	      3.51881454	      3.23858853	     -4.06965410	    -11.92227627	    -13.34041263	      6.38551289	     -2.06354355	     -5.88664860	     -2.41405430	      2.76983512
      0.15000000	      0.26645224	     -2.17357455	     -1.50064393	      1.03427434	      0.92676546	      0.13843593	      1.81458345	      2.34935525	      1.19858128	     -9.49887958	      3.47778267	      3.45265215	      3.04278581	     -4.02293314	    -11.85996499	    -13.26772396	      6.37966757	     -2.02496847	     -5.96739355	     -2.35194591	      2.68447618
      0.16000000	      0.38935863	     -2.16636162	     -1.41650492	      1.03478555	      0.92691957	      0.13809737	      1.54413209	      2.31751110	      1.15542509	     -9.30537310	      3.39825827	      3.39526152	      2.86476877	     -3.99255694	    -11.80173964	    -13.22324575	      6.38266523	     -1.99103198	     -6.05849950	     -2.27975959	      2.60777892
